<svg fill="none" xmlns="http://www.w3.org/2000/svg" viewBox="0 0 173 24"> <g clip-path="url(#clip0_2_4)"> <path d="M16.0096 3.18317C12.1318 1.36472 7.97137 0.267448 3.9408 0V18.645C7.97098 18.9051 12.124 19.9723 16.0096 21.7441V3.18317Z" fill="white"/> <path d="M28.7897 0C24.7592 0.267767 20.5984 1.36472 16.7209 3.18317V21.7438C20.6057 19.972 24.7599 18.9048 28.7897 18.6447V0Z" fill="white"/> <path d="M15.8774 22.7084C16.1938 22.7973 16.527 22.8011 16.8434 22.7123C21.3751 21.1009 26.121 20.3755 30.7599 20.5427V2.08301C30.3424 2.06768 29.9222 2.06416 29.5004 2.06544V19.1904L29.1692 19.2083C25.0204 19.431 20.7208 20.543 16.721 22.4189C16.4901 22.4838 16.2401 22.4838 16.0096 22.4189C12.0093 20.543 7.71012 19.431 3.56137 19.2083L3.22938 19.1904V2.06544C2.80797 2.06416 2.38734 2.06736 1.97021 2.08301V20.5427C6.60879 20.3752 11.3446 21.097 15.8774 22.7084Z" fill="white"/> <path d="M32.7297 4.1552C32.3138 4.10759 31.8912 4.08235 31.4713 4.04816V21.1591L31.095 21.1412C26.3542 20.9178 21.3529 21.709 16.721 23.3987L16.3649 23.5204L16.0092 23.3987C11.3764 21.709 6.37552 20.9175 1.6347 21.1412L1.25878 21.1591V4.04816C0.838536 4.08267 0.415964 4.10791 0 4.1552V22.9139C0.230918 23.012 0.405856 23.1529 0.405856 23.1529C5.44057 22.5938 10.6662 22.6621 15.6371 24C15.8657 23.9815 16.1083 23.9697 16.3653 23.9697C16.6222 23.9697 16.8648 23.9815 17.093 24C22.0632 22.6618 27.2895 22.5938 32.3239 23.1529C32.3239 23.1529 32.5081 23.0053 32.7297 22.9139V4.1552Z" fill="white"/> <path d="M51.7981 9.49333C53.8392 9.95649 55.2042 11.0578 55.2042 13.1781C55.2042 15.6894 53.3509 17.3465 49.5317 17.3465H42.0811V2.47422H47.9414C51.8483 2.47422 53.9019 4.01805 53.9019 6.55007C53.9019 7.85718 53.2131 8.92726 51.7981 9.49333ZM47.9788 5.03638H45.6999V8.53582H48.1417C49.7445 8.53582 50.4458 7.75359 50.4458 6.74494C50.4458 5.75686 49.6568 5.03638 47.9788 5.03638ZM48.8303 14.7013C50.8588 14.7013 51.5601 13.8059 51.5601 12.8384C51.5601 11.8503 50.8714 10.9136 48.7551 10.9136H45.6997V14.7013H48.8303ZM64.0698 17.5524C59.975 17.5524 57.0199 15.5041 57.0199 12.0459C57.0199 8.60823 59.9501 6.55998 64.0698 6.55998C68.2146 6.55998 71.1322 8.60823 71.1322 12.0459C71.1322 15.5042 68.202 17.5524 64.0698 17.5524ZM64.0322 15.1954C66.1235 15.1954 67.5509 13.9397 67.5509 12.0459C67.5509 10.1521 66.1233 8.89637 64.0322 8.89637C62.0161 8.89637 60.6011 10.1521 60.6011 12.0459C60.6011 13.9397 62.0161 15.1954 64.0322 15.1954ZM79.8101 17.5524C75.7153 17.5524 72.7602 15.5041 72.7602 12.0459C72.7602 8.60823 75.6904 6.55998 79.8101 6.55998C83.9549 6.55998 86.8726 8.60823 86.8726 12.0459C86.8726 15.5042 83.9424 17.5524 79.8101 17.5524ZM79.7725 15.1954C81.8638 15.1954 83.2912 13.9397 83.2912 12.0459C83.2912 10.1521 81.8637 8.89637 79.7725 8.89637C77.7564 8.89637 76.3415 10.1521 76.3415 12.0459C76.3415 13.9397 77.7564 15.1954 79.7725 15.1954ZM98.0924 17.3465L93.9476 12.9001H93.1963V17.3465H89.5523V1.53726H93.1963V10.8417H93.8725L97.9171 6.76581H101.999L96.9279 11.6753L102.475 17.3465H98.0924ZM111.454 17.3465V2.47422H118.003C123.775 2.47422 126.63 5.45902 126.63 9.90543C126.63 14.3621 123.775 17.3469 118.003 17.3469L111.454 17.3465ZM115.21 14.619H117.815C121.146 14.619 122.674 12.9105 122.674 9.90501C122.674 6.89956 121.146 5.191 117.815 5.191H115.21V14.619ZM131.514 5.18077C130.375 5.18077 129.423 4.41912 129.423 3.47221C129.423 2.5356 130.374 1.77398 131.514 1.77398C132.629 1.77398 133.58 2.53563 133.58 3.47221C133.58 4.41912 132.628 5.18077 131.514 5.18077ZM129.673 17.3465V6.76592H133.305V17.3465H129.673ZM147.593 14.4749C147.593 15.7718 147.743 16.5952 147.906 17.0584V17.3466H144.537L144.249 16.1938C143.285 17.151 141.619 17.5524 140.117 17.5524C138.088 17.5524 136.11 16.8114 136.11 14.6087C136.11 12.4164 138.101 11.6754 140.793 11.1916L142.909 10.8005C143.823 10.6255 144.149 10.3682 144.149 9.93593C144.149 8.89639 142.997 8.60816 141.982 8.60816C140.68 8.60816 139.691 9.03015 139.465 10.2241L136.272 9.75062C136.811 7.5583 138.764 6.56 142.183 6.56C144.762 6.56 147.592 7.18784 147.592 10.3785L147.593 14.4749ZM141.244 15.5453C142.959 15.5453 144.337 14.6087 144.337 12.509L141.281 13.2192C140.28 13.4147 139.553 13.7029 139.553 14.4131C139.553 15.1748 140.317 15.5453 141.244 15.5453ZM154.555 8.44349C155.206 7.50688 156.897 6.64229 158.762 6.64229V9.2875C156.033 9.2875 154.73 9.94622 154.73 12.19V17.3465H151.099V6.76592H154.555L154.555 8.44349ZM169.306 6.76592H173L165.061 22.3286H161.404L164.347 16.9147L159.05 6.76634H162.982L166.05 13.7241L169.306 6.76592Z" fill="white"/> </g> <defs> <clipPath id="clip0_2_4"> <rect width="173" height="24" fill="white"/> </clipPath> </defs> </svg>